<svg width="22" height="22" viewBox="0 0 22 22" fill="none" xmlns="http://www.w3.org/2000/svg">
	<path fill-rule="evenodd" clip-rule="evenodd" d="M15.7576 14.188L21.6753 20.1057C21.8833 20.3138 22.0001 20.5961 22 20.8903C21.9999 21.1846 21.8829 21.4668 21.6748 21.6748C21.4666 21.8828 21.1844 21.9996 20.8901 21.9995C20.5958 21.9993 20.3137 21.8824 20.1057 21.6742L14.188 15.7565C12.4189 17.1267 10.1943 17.7715 7.96679 17.5597C5.73922 17.3479 3.676 16.2955 2.19685 14.6165C0.717691 12.9375 -0.0662885 10.7581 0.00439575 8.52162C0.07508 6.28513 0.995118 4.15957 2.57734 2.57734C4.15957 0.995118 6.28513 0.07508 8.52162 0.00439575C10.7581 -0.0662885 12.9375 0.717691 14.6165 2.19685C16.2955 3.676 17.3479 5.73923 17.5597 7.96679C17.7715 10.1944 17.1267 12.4189 15.7565 14.188H15.7576ZM8.80041 15.399C10.5508 15.399 12.2294 14.7037 13.4671 13.466C14.7048 12.2283 15.4001 10.5497 15.4001 8.79931C15.4001 7.04896 14.7048 5.37031 13.4671 4.13262C12.2294 2.89494 10.5508 2.19962 8.80041 2.19962C7.05006 2.19962 5.3714 2.89494 4.13372 4.13262C2.89604 5.37031 2.20072 7.04896 2.20072 8.79931C2.20072 10.5497 2.89604 12.2283 4.13372 13.466C5.3714 14.7037 7.05006 15.399 8.80041 15.399Z" fill="#E1E0E6" />
</svg>
