<svg width="16" height="12" viewBox="0 0 16 12" fill="none" xmlns="http://www.w3.org/2000/svg">
	<g clip-path="url(#clip0_6_1441)">
		<path fill-rule="evenodd" clip-rule="evenodd" d="M15.8042 0.861249C15.8662 0.923172 15.9155 0.996734 15.9491 1.07772C15.9827 1.15871 16 1.24553 16 1.33321C16 1.4209 15.9827 1.50772 15.9491 1.58871C15.9155 1.66969 15.8662 1.74326 15.8042 1.80518L6.47151 11.1378C6.40959 11.1999 6.33603 11.2491 6.25504 11.2828C6.17406 11.3164 6.08723 11.3337 5.99955 11.3337C5.91187 11.3337 5.82504 11.3164 5.74406 11.2828C5.66307 11.2491 5.58951 11.1999 5.52759 11.1378L0.861266 6.4715C0.736093 6.34632 0.665771 6.17655 0.665771 5.99953C0.665771 5.82251 0.736093 5.65274 0.861266 5.52757C0.986438 5.40239 1.15621 5.33207 1.33323 5.33207C1.51025 5.33207 1.68002 5.40239 1.8052 5.52757L5.99955 9.72325L14.8602 0.861249C14.9221 0.799169 14.9957 0.749916 15.0767 0.71631C15.1577 0.682704 15.2445 0.665405 15.3322 0.665405C15.4199 0.665405 15.5067 0.682704 15.5877 0.71631C15.6687 0.749916 15.7422 0.799169 15.8042 0.861249Z" fill="white" />
	</g>
	<defs>
		<clipPath id="clip0_6_1441">
			<rect width="16" height="11.9991" fill="white" />
		</clipPath>
	</defs>
</svg>
