<svg width="20" height="20" viewBox="0 0 20 20" fill="none" xmlns="http://www.w3.org/2000/svg">
	<path d="M10 20C8.63333 20 7.34167 19.7375 6.125 19.2125C4.90833 18.6875 3.84583 17.9708 2.9375 17.0625C2.02917 16.1542 1.3125 15.0917 0.7875 13.875C0.2625 12.6583 0 11.3667 0 10C0 8.61667 0.2625 7.32083 0.7875 6.1125C1.3125 4.90417 2.02917 3.84583 2.9375 2.9375C3.84583 2.02917 4.90833 1.3125 6.125 0.7875C7.34167 0.2625 8.63333 0 10 0C10.2833 0 10.5208 0.0958333 10.7125 0.2875C10.9042 0.479167 11 0.716667 11 1C11 1.28333 10.9042 1.52083 10.7125 1.7125C10.5208 1.90417 10.2833 2 10 2C7.78333 2 5.89583 2.77917 4.3375 4.3375C2.77917 5.89583 2 7.78333 2 10C2 12.2167 2.77917 14.1042 4.3375 15.6625C5.89583 17.2208 7.78333 18 10 18C12.2167 18 14.1042 17.2208 15.6625 15.6625C17.2208 14.1042 18 12.2167 18 10C18 9.71667 18.0958 9.47917 18.2875 9.2875C18.4792 9.09583 18.7167 9 19 9C19.2833 9 19.5208 9.09583 19.7125 9.2875C19.9042 9.47917 20 9.71667 20 10C20 11.3667 19.7375 12.6583 19.2125 13.875C18.6875 15.0917 17.9708 16.1542 17.0625 17.0625C16.1542 17.9708 15.0958 18.6875 13.8875 19.2125C12.6792 19.7375 11.3833 20 10 20Z" fill="#D5D4DA" />
</svg>
